<svg id="Capa_1" enable-background="new 0 0 512 512" height="512" viewBox="0 0 512 512" width="512" xmlns="http://www.w3.org/2000/svg"><g><path d="m12.517 288.914c-1.058-9.504-1.573-19.173-1.512-28.974.837-134.447 110.956-243.66 245.405-243.44 135.121.222 244.59 109.827 244.59 245 0 9.156-.502 18.195-1.481 27.091-.763 6.932-6.575 12.203-13.549 12.203h-460.102c-6.819-.001-12.597-5.103-13.351-11.88z" fill="#ffc14f"/><path d="m466.005 261.5c0 110.021-89.19 199.211-199.211 199.211s-199.21-89.19-199.21-199.211 89.19-199.211 199.211-199.211 199.21 89.19 199.21 199.211z" fill="#fff36c"/><path d="m440 280.5c0 74.558-60.442 135-135 135s-135-60.442-135-135 60.442-135 135-135 135 60.442 135 135z" fill="#ffe7c0"/><path d="m440 280.5c0 23.919-6.221 46.384-17.132 65.868-19.484 10.911-41.949 17.132-65.868 17.132-74.558 0-135-60.442-135-135 0-23.919 6.221-46.384 17.132-65.868 19.484-10.911 41.949-17.132 65.868-17.132 74.558 0 135 60.442 135 135z" fill="#fff5f5"/><path d="m499.839 285.5c-7.977 82.049-56.426 152.245-125.13 190.372-.478.266-1.329-2.572-1.81-2.309-12.198 6.662-25.025 12.318-38.368 16.854-.726.247-1.081 3.591-1.81 3.831-24.134 7.95-49.925 12.252-76.721 12.252-30.385 0-59.478-5.531-86.327-15.642-.691-.26-2.006-5.842-2.694-6.108-11.331-4.385-22.254-9.588-32.698-15.538-.833-.474-1.037 4.365-1.863 3.882-66.115-38.698-112.47-107.499-120.257-187.594h196.683l129.826 32 101.238-32z" fill="#3493f8"/><path d="m464.574 285.5c-11.852 98.704-95.881 175.211-197.779 175.211s-185.928-76.507-197.78-175.211h120.985l192.739 30.667 57.17-30.667z" fill="#55a4f9"/><path d="m439.909 285.5c-2.63 72.242-62.024 130-134.909 130s-132.278-57.758-134.909-130z" fill="#a7d0fc"/><path d="m374.709 475.871c-13.287 7.374-27.333 13.548-41.989 18.376l13.992-415.625h14.624zm-231.39-237.249-10.906 234.469c11.824 6.921 24.281 12.88 37.262 17.768l-11.732-252.237z" fill="#f29500"/><path d="m166.335 419.048c.417 8.96-6.735 16.452-15.704 16.452s-16.121-7.492-15.704-16.452l8.392-180.427h14.624zm206.365-2.863-11.364-337.563h-14.624l-11.364 337.563c-.355 10.561 8.109 19.315 18.676 19.315s19.031-8.754 18.676-19.315z" fill="#ffa90b"/><path d="m185.184 297.411c-14.822 11.121-29.736 23.18-44.542 36.097s-28.776 26.057-41.805 39.234c-1.227 1.241-3.357.432-3.419-1.312-.721-20.489 5.48-40.088 18.65-54.889-5.888-.228-11.828-.392-17.813-.49-19.646-.322-38.821.081-57.321 1.142-1.742.1-2.783-1.927-1.661-3.264 12.683-15.102 29.572-25.302 48.366-27.991-3.643-1.826-7.31-3.64-11.001-5.439-24.733-12.056-49.296-22.887-73.375-32.455-1.619-.643-1.703-2.906-.133-3.661 29.635-14.264 62.914-16.012 92.006-1.831 6.228 3.036 11.998 6.673 17.291 10.829-1.549-2.33-3.109-4.66-4.684-6.99-15.405-22.799-31.275-44.451-47.356-64.766-1.081-1.366-.023-3.368 1.714-3.238 32.798 2.446 62.501 17.553 80.621 44.369 14.196 21.009 19.071 45.932 15.724 70.813 9.052-1.464 18.484-1.352 27.903.277 1.719.297 2.231 2.517.835 3.565zm201.32-152.021c-7.344-2.351-14.87-3.473-22.262-3.276 5.166-26.985.743-54.423-14.676-77.243-18.12-26.816-47.823-41.924-80.621-44.369-1.737-.13-2.795 1.873-1.714 3.238 16.081 20.316 31.951 41.968 47.356 64.766 1.575 2.33 3.135 4.661 4.684 6.991-5.293-4.156-11.063-7.793-17.291-10.829-29.092-14.181-62.37-12.433-92.005 1.831-1.569.755-1.485 3.018.133 3.661 24.078 9.568 48.642 20.399 73.375 32.455 3.692 1.799 7.359 3.613 11.002 5.439-18.795 2.689-35.684 12.889-48.367 27.991-1.122 1.336-.081 3.364 1.661 3.264 18.5-1.061 37.675-1.464 57.321-1.142 6.753.111 13.447.305 20.075.581-9.914 9.989-15.771 23.414-17.286 38.024-.143 1.381 1.447 2.253 2.551 1.409 11.716-8.954 24.171-17.777 37.26-26.331 13.088-8.554 26.168-16.421 39.072-23.558 1.215-.672 1.055-2.478-.268-2.902z" fill="#498d2d"/><path d="m304.277 277.574c-25.725 3.091-52.241 7.28-79.235 12.609-12.389 2.446-24.592 5.077-36.585 7.875 18.735 8.044 32.531 23.977 39.754 43.63.602 1.638-1.07 3.188-2.674 2.5-16.379-7.027-33.582-13.682-51.446-19.838-17.865-6.156-35.518-11.511-52.75-16.065-1.687-.446-2.047-2.695-.564-3.614 6.855-4.25 14.139-7.464 21.631-9.513-12.599-1.88-25.527-3.471-38.718-4.741-18.532-1.785-36.676-2.852-54.233-3.249-1.719-.039-2.581-2.11-1.372-3.332 15.693-15.863 36.502-24.68 58.413-22.569 1.823.176 3.624.424 5.401.743-11.324-8.211-22.645-15.948-33.881-23.183-1.467-.945-1.115-3.195.579-3.612 21.991-5.411 44.676-2.011 62.521 11.432 1.971 1.485 3.841 3.061 5.609 4.719-4.293-14.27-4.365-29.358.685-43.717 7.413-21.076 24.416-36.47 45.721-44.146 1.642-.591 3.182 1.09 2.483 2.69-6.909 15.825-13.474 32.426-19.578 49.655.897-1.093 1.821-2.17 2.773-3.231 21.615-24.088 53.104-34.993 85.929-32.933 1.738.109 2.512 2.237 1.255 3.442-18.707 17.927-37.387 37.206-55.764 57.685-4.08 4.547-8.1 9.102-12.058 13.663 5.942-2.499 12.184-4.423 18.69-5.707 31.751-6.269 63.476 3.932 88.477 25.301 1.326 1.132.666 3.299-1.063 3.506zm207.022-161.388c-25.002-21.369-56.726-31.57-88.477-25.301-6.506 1.284-12.748 3.209-18.69 5.707 3.958-4.561 7.977-9.116 12.058-13.663 18.377-20.479 37.057-39.758 55.764-57.685 1.257-1.205.483-3.333-1.255-3.442-32.825-2.061-64.314 8.845-85.929 32.933-.952 1.061-1.876 2.138-2.773 3.231 6.104-17.229 12.668-33.829 19.578-49.655.698-1.599-.841-3.281-2.483-2.69-21.306 7.676-38.308 23.07-45.721 44.146-5.05 14.358-4.978 29.447-.685 43.717-1.768-1.659-3.638-3.234-5.609-4.719-17.846-13.443-40.53-16.842-62.521-11.432-1.694.417-2.046 2.667-.579 3.612 11.236 7.236 22.557 14.973 33.881 23.183-1.777-.319-3.578-.567-5.402-.743-21.911-2.111-42.72 6.706-58.413 22.569-1.209 1.222-.347 3.294 1.372 3.332 17.557.397 35.701 1.464 54.233 3.249 13.191 1.271 26.119 2.862 38.718 4.741-7.492 2.048-14.776 5.262-21.631 9.513-1.483.919-1.123 3.168.564 3.614 17.233 4.555 34.885 9.909 52.75 16.065 17.864 6.155 35.066 12.811 51.446 19.838 1.604.688 3.276-.862 2.674-2.5-7.222-19.653-21.019-35.586-39.754-43.63 11.993-2.799 24.197-5.429 36.586-7.875 26.994-5.33 53.51-9.518 79.235-12.609 1.727-.209 2.387-2.375 1.063-3.506z" fill="#5db33a"/></g></svg>